# xmcd CD database file
#
# Track frame offsets:
#	150
#	21652
#	46284
#	69238
#	93553
#	106569
#	137167
#	159846
#	185398
#	211164
#	229152
#	248716
#	260124
#	287971
#	325692
#
# Disc length: 4432 seconds
#
# Revision: 0
# Processed by: cddbd v1.5.2PL0 Copyright (c) Steve Scherf et al.
# Submitted via: CDex 1.70beta2
#
DISCID=d0114e0f
DTITLE=Didier Lockwood - Best Of
DYEAR=2006
DGENRE=Jazz
TTITLE0=Juggling in Central Park
TTITLE1=Polish
TTITLE2=Tip Tap
TTITLE3=Cousin William
TTITLE4=Martinique
TTITLE5=Round About Midnight
TTITLE6=Cote Jardin
TTITLE7=Le Solo
TTITLE8=Nuages
TTITLE9=La Ballade Irlandaise
TTITLE10=Angelito
TTITLE11=Lune Froide
TTITLE12=The Kid
TTITLE13=Pork Chops
TTITLE14=Zebulon Dance
EXTD=YEAR: 2006
EXTT0=
EXTT1=
EXTT2=
EXTT3=
EXTT4=
EXTT5=
EXTT6=
EXTT7=
EXTT8=
EXTT9=
EXTT10=
EXTT11=
EXTT12=
EXTT13=
EXTT14=
PLAYORDER=
